<svg id="eW0v47w9azt1" xmlns="http://www.w3.org/2000/svg" xmlns:xlink="http://www.w3.org/1999/xlink" viewBox="0 0 203 203" shape-rendering="geometricPrecision" text-rendering="geometricPrecision" width="203" height="203"><rect id="eW0v47w9azt2" width="203" height="203" rx="0" ry="0" clip-rule="evenodd" fill="rgb(254,254,254)" fill-rule="evenodd" stroke="none" stroke-width="1"/><g id="eW0v47w9azt3" clip-rule="evenodd"><g id="eW0v47w9azt4" clip-rule="evenodd"><path id="eW0v47w9azt5" d="M0,104C0,72,9,46,28,28C47,9,72,0,102,0C121,0,139,4,155,13C170,22,182,34,191,49C199,65,203,82,203,102C203,122,199,140,190,155C182,171,169,183,153,191C137,199,120,203,102,203C82,203,64,199,48,190C32,181,20,169,12,153C4,138,0,121,0,104ZM29,105C29,128,36,147,50,161C64,174,81,181,102,181C123,181,140,174,154,160C167,147,174,127,174,102C174,86,171,72,165,60C159,48,151,39,140,32C128,26,116,23,102,23C82,23,65,29,50,41C36,54,29,75,29,105Z" clip-rule="evenodd" fill="rgb(174,74,132)" stroke="none" stroke-width="1"/><path id="eW0v47w9azt6" d="M64,61L69,61L70,63L131,63L132,61L137,61L147,84L141,86C138,80,134,75,130,73C126,70,120,69,114,69C111,69,109,69,109,69C108,69,108,70,108,70C107,71,107,72,107,74L107,130C107,132,107,134,108,135C108,136,109,137,109,137C110,138,111,138,112,138C113,139,116,139,120,139L120,144L82,144L82,139C86,139,88,139,89,138C91,138,92,137,93,136C94,135,94,133,94,130L94,73C94,72,94,71,94,70C93,70,93,70,92,69C92,69,91,69,89,69C84,69,79,70,76,71C73,72,70,73,67,76C65,79,62,82,60,86L54,84L64,61Z" clip-rule="evenodd" fill="rgb(227,30,36)" stroke="none" stroke-width="1"/></g></g></svg>